<?xml version="1.0" standalone="no"?>
<!DOCTYPE svg PUBLIC "-//W3C//DTD SVG 20010904//EN" "http://www.w3.org/TR/2001/REC-SVG-20010904/DTD/svg10.dtd">
<!-- Created using Krita: https://krita.org -->
<svg xmlns="http://www.w3.org/2000/svg" 
    xmlns:xlink="http://www.w3.org/1999/xlink"
    xmlns:krita="http://krita.org/namespaces/svg/krita"
    xmlns:sodipodi="http://sodipodi.sourceforge.net/DTD/sodipodi-0.dtd"
    width="737.28pt"
    height="737.28pt"
    viewBox="0 0 737.28 737.28">
<defs/>
<path id="shape0" transform="matrix(-1 0 0 -1 674.596484262854 666.02600718306)" fill="none" stroke="#120030" stroke-width="72" stroke-linecap="square" stroke-linejoin="miter" stroke-miterlimit="2" d="M0 1.27898e-13C166.115 119.445 330.764 124.241 493.762 0" sodipodi:nodetypes="cc"/><path id="shape01" transform="translate(180.83471338254, 185.419709168178)" fill="none" stroke="#120030" stroke-width="72" stroke-linecap="square" stroke-linejoin="miter" stroke-miterlimit="2" d="M0 1.27898e-13C166.115 119.445 330.764 124.241 493.762 0" sodipodi:nodetypes="cc"/><path id="shape1" transform="matrix(-1 0 0 -1 568.419321772054 586.455059844443)" fill="none" stroke="#120030" stroke-width="72" stroke-linecap="square" stroke-linejoin="miter" stroke-miterlimit="2" d="M5.32907e-15 0C-2.22045e-14 72.9347 9.05942e-14 145.869 5.32907e-15 218.804" sodipodi:nodetypes="cc"/><circle id="shape2" transform="matrix(-1 0 0 -1 605.555713382542 370.629971423119)" r="37.08" cx="37.08" cy="37.08" fill="#120030" fill-rule="evenodd" stroke-opacity="0" stroke="#000000" stroke-width="0" stroke-linecap="square" stroke-linejoin="bevel"/><path id="shape02" transform="translate(292.57190495722, 261.851180453876)" fill="none" stroke="#120030" stroke-width="72" stroke-linecap="square" stroke-linejoin="miter" stroke-miterlimit="2" d="M5.32907e-15 0C-2.22045e-14 72.9347 9.05942e-14 145.869 5.32907e-15 218.804" sodipodi:nodetypes="cc"/><circle id="shape11" transform="translate(255.435513346733, 477.676268875201)" r="37.08" cx="37.08" cy="37.08" fill="#120030" fill-rule="evenodd" stroke-opacity="0" stroke="#000000" stroke-width="0" stroke-linecap="square" stroke-linejoin="bevel"/><path id="shape3" transform="translate(69.183069499284, 67.9878969245206)" fill="none" stroke="#3d00a6" stroke-width="72" stroke-linecap="square" stroke-linejoin="miter" stroke-miterlimit="2" d="M0 1.27898e-13C166.115 119.445 330.764 124.241 493.762 0" sodipodi:nodetypes="cc"/><path id="shape03" transform="matrix(-1 0 0 -1 562.944840379598 548.594194939402)" fill="none" stroke="#3d00a6" stroke-width="72" stroke-linecap="square" stroke-linejoin="miter" stroke-miterlimit="2" d="M0 1.27898e-13C166.115 119.445 330.764 124.241 493.762 0" sodipodi:nodetypes="cc"/><path id="shape4" transform="translate(175.360231990084, 147.558844263137)" fill="none" stroke="#3d00a6" stroke-width="72" stroke-linecap="square" stroke-linejoin="miter" stroke-miterlimit="2" d="M5.32907e-15 0C-2.22045e-14 72.9347 9.05942e-14 145.869 5.32907e-15 218.804" sodipodi:nodetypes="cc"/><circle id="shape5" transform="translate(138.223840379596, 363.383932684461)" r="37.08" cx="37.08" cy="37.08" fill="#3d00a6" fill-rule="evenodd" stroke="none" stroke-width="1" stroke-linecap="square" stroke-linejoin="bevel"/><path id="shape04" transform="matrix(-1 0 0 -1 451.207648804918 472.162723653704)" fill="none" stroke="#3d00a6" stroke-width="72" stroke-linecap="square" stroke-linejoin="miter" stroke-miterlimit="2" d="M5.32907e-15 0C-2.22045e-14 72.9347 9.05942e-14 145.869 5.32907e-15 218.804" sodipodi:nodetypes="cc"/><circle id="shape12" transform="matrix(-1 0 0 -1 488.344040415405 256.337635232379)" r="37.08" cx="37.08" cy="37.08" fill="#3d00a6" fill-rule="evenodd" stroke="none" stroke-width="1" stroke-linecap="square" stroke-linejoin="bevel"/>
</svg>
